<svg xmlns="http://www.w3.org/2000/svg" viewBox="0 0 64 64" role="img" aria-label="MechanicMatch favicon">
  <defs>
    <linearGradient id="fg" x1="0" y1="0" x2="1" y2="1">
      <stop offset="0" stop-color="#7C5CFF"/>
      <stop offset="1" stop-color="#31D2FF"/>
    </linearGradient>
  </defs>
  <rect width="64" height="64" rx="16" fill="#0B1020"/>
  <path d="M32 10c-8.3 0-15 6.7-15 15 0 12.2 15 29 15 29s15-16.8 15-29c0-8.3-6.7-15-15-15z" fill="url(#fg)"/>
  <circle cx="32" cy="25" r="7" fill="#0B1020"/>
  <path d="M29 22.7a4.2 4.2 0 0 0 6.7 3.4l2.6 2.6-1.6 1.6-2.6-2.6A4.2 4.2 0 0 0 30.7 34l-2.4 2.4-3.7-3.7 2.4-2.4a4.2 4.2 0 0 0 2-7.6z"
        fill="#EAF0FF" opacity="0.95"/>
</svg>
