<svg xmlns="http://www.w3.org/2000/svg" width="180" height="44" viewBox="0 0 180 44" role="img" aria-label="Mechanic Match logo">
  <defs>
    <linearGradient id="g" x1="0" y1="0" x2="1" y2="1">
      <stop offset="0" stop-color="#7C5CFF"/>
      <stop offset="1" stop-color="#31D2FF"/>
    </linearGradient>
  </defs>

  <!-- Mark -->
  <g transform="translate(8 8)">
    <path d="M14 2c-4.9 0-8.9 4-8.9 8.9 0 7.2 8.9 16.9 8.9 16.9s8.9-9.7 8.9-16.9C22.9 6 18.9 2 14 2z" fill="url(#g)"/>
    <circle cx="14" cy="10.9" r="4.6" fill="#0B1020" opacity="0.95"/>
    <!-- Simple wrench -->
    <path d="M12.2 9.8a2.9 2.9 0 0 0 4.6 2.3l1.8 1.8-1.1 1.1-1.8-1.8a2.9 2.9 0 0 0-2.3 4.6l-1.7 1.7-2.5-2.5 1.7-1.7a2.9 2.9 0 0 0 2.3-3.5z"
          fill="#EAF0FF" opacity="0.95"/>
  </g>

  <!-- Wordmark -->
  <g fill="#EAF0FF" transform="translate(44 10)">
    <text x="0" y="16" font-family="ui-sans-serif, system-ui, -apple-system, Segoe UI, Roboto, Arial" font-size="16" font-weight="700" letter-spacing="0.2">
      MechanicMatch
    </text>
    <text x="0" y="30" font-family="ui-sans-serif, system-ui, -apple-system, Segoe UI, Roboto, Arial" font-size="10.5" font-weight="500" opacity="0.72">
      Fast local matching
    </text>
  </g>
</svg>
